<svg width="40" height="40" viewBox="0 0 40 40" fill="none" xmlns="http://www.w3.org/2000/svg">
<path opacity="0.3" d="M33.9633 33.9632C26.2468 41.6962 13.7361 41.7454 5.95385 34.111C11.454 39.4797 20.2705 39.4305 25.7214 33.9796C31.2051 28.4795 31.2051 19.5644 25.705 14.0807C20.2049 8.58058 11.2898 8.597 5.80609 14.0971C0.371662 19.5316 0.338825 28.3317 5.69116 33.8318C-1.94331 26.0496 -1.89405 13.5717 5.82251 5.83874C13.5883 -1.94351 26.1811 -1.94351 33.9633 5.82232C41.7291 13.5881 41.7291 26.1974 33.9633 33.9632Z" fill="#4863F7"/>
<path opacity="0.6" d="M25.7219 33.9632C20.271 39.4141 11.4544 39.4634 5.95429 34.0946C5.90504 34.0453 5.8722 34.0125 5.82294 33.9632L5.80653 33.9468C9.04092 37.1648 14.2619 37.1648 17.4963 33.9468C20.7143 30.7124 20.7143 25.4914 17.4963 22.257C14.2619 19.0555 9.0245 19.0555 5.80653 22.2735C2.60497 25.475 2.58855 30.6468 5.74085 33.8812C5.74085 33.8812 5.74085 33.8812 5.72444 33.8647C5.72444 33.8647 5.72444 33.8647 5.70802 33.8483L5.6916 33.8319L5.67518 33.8155C0.339253 28.3318 0.372089 19.5316 5.82294 14.0808C11.3231 8.58064 20.2217 8.58064 25.7219 14.0643C31.222 19.5644 31.222 28.4796 25.7219 33.9632Z" fill="#4863F7"/>
<path opacity="0.4" d="M5.80601 33.9638C5.77318 33.9309 5.74035 33.8981 5.70752 33.8652L5.72394 33.8817C5.75677 33.9145 5.7896 33.9473 5.80601 33.9638Z" fill="#4863F7"/>
<path d="M17.4958 33.9633C14.2778 37.1977 9.04043 37.1977 5.80604 33.9633C5.7732 33.9304 5.75679 33.914 5.72395 33.8812C2.57165 30.6468 2.58807 25.475 5.78962 22.2735C9.00759 19.0391 14.245 19.0391 17.4794 22.2735C20.7138 25.4914 20.7138 30.7289 17.4958 33.9633Z" fill="#4863F7"/>
</svg>
